<?xml version="1.0" encoding="utf-8"?>
<!-- Generator: Adobe Illustrator 19.0.0, SVG Export Plug-In . SVG Version: 6.00 Build 0)  -->
<svg version="1.1" id="레이어_1" xmlns="http://www.w3.org/2000/svg" xmlns:xlink="http://www.w3.org/1999/xlink" x="0px"
	 y="0px" viewBox="-554 551.9 24 30" style="enable-background:new -554 551.9 24 30;" xml:space="preserve">
<style type="text/css">
	.st0{fill:#FFFFFF;}
</style>
<title>calender</title>
<g>
	<path class="st0" d="M-532,564.7h-20c-0.6,0-1-0.4-1-1v-4c0-1.7,1.3-3,3-3h16c1.7,0,3,1.3,3,3v4C-531,564.2-531.4,564.7-532,564.7z
		 M-551,562.7h18v-3c0-0.6-0.4-1-1-1h-16c-0.6,0-1,0.4-1,1V562.7z"/>
	<path class="st0" d="M-536,560.7c-0.6,0-1-0.4-1-1v-4c0-0.6,0.4-1,1-1s1,0.4,1,1v4C-535,560.2-535.4,560.7-536,560.7z"/>
	<path class="st0" d="M-548,560.7c-0.6,0-1-0.4-1-1v-4c0-0.6,0.4-1,1-1s1,0.4,1,1v4C-547,560.2-547.4,560.7-548,560.7z"/>
	<path class="st0" d="M-534,576.7h-16c-1.7,0-3-1.3-3-3v-10c0-0.6,0.4-1,1-1h20c0.6,0,1,0.4,1,1v10
		C-531,575.3-532.3,576.7-534,576.7z M-551,564.7v9c0,0.6,0.4,1,1,1h16c0.6,0,1-0.4,1-1v-9H-551z"/>
</g>
</svg>
