<?xml version="1.0" encoding="utf-8"?>
<!-- Generator: Adobe Illustrator 19.0.0, SVG Export Plug-In . SVG Version: 6.00 Build 0)  -->
<svg version="1.1" id="레이어_1" xmlns="http://www.w3.org/2000/svg" xmlns:xlink="http://www.w3.org/1999/xlink" x="0px"
	 y="0px" viewBox="-553 550.4 26 32.5" style="enable-background:new -553 550.4 26 32.5;" xml:space="preserve">
<style type="text/css">
	.st0{fill:#FFFFFF;}
</style>
<title>Clock, deadline, hour, speed, time, timer, watch</title>
<desc>Created with Sketch.</desc>
<g>
	<g transform="translate(-483.000000, -163.000000)">
		<g transform="translate(483.000000, 163.000000)">
			<path class="st0" d="M-540,580.4c-7.2,0-13-5.8-13-13s5.8-13,13-13s13,5.8,13,13S-532.8,580.4-540,580.4z M-540,578.4
				c6.1,0,11-4.9,11-11s-4.9-11-11-11s-11,4.9-11,11S-546.1,578.4-540,578.4z M-539,566.4h3c0.6,0,1,0.4,1,1s-0.4,1-1,1h-4
				c-0.6,0-1-0.4-1-1v-7c0-0.6,0.4-1,1-1s1,0.4,1,1V566.4z"/>
		</g>
	</g>
</g>
</svg>
